<svg xmlns="http://www.w3.org/2000/svg" viewBox="0 0 24.87 24.85"><title>Asset 4</title><g id="Layer_2" data-name="Layer 2"><g id="Capa_1" data-name="Capa 1"><g id="gear_configuration" data-name="gear, configuration"><path d="M24.79,11.27a.31.31,0,0,0,0-.13,1.52,1.52,0,0,0-1.38-1.22h-.54A1,1,0,0,1,22,9.38a1.47,1.47,0,0,1-.1-.33,9.77,9.77,0,0,0-.39-.94.43.43,0,0,0,0-.07.65.65,0,0,1-.11-.22.87.87,0,0,1-.06-.32,1,1,0,0,1,.29-.69l.24-.25a.34.34,0,0,0,.09-.08A1.49,1.49,0,0,0,22,4.57L22,4.48a10,10,0,0,0-.76-.83,8.93,8.93,0,0,0-.85-.78l-.07-.05a1.48,1.48,0,0,0-1.84.05l-.34.34L18,3.28A1,1,0,0,1,17,3.5l-.18-.09a9.22,9.22,0,0,0-1.15-.48l-.1,0h0a1,1,0,0,1-.32-.21,1,1,0,0,1-.27-.57,1.47,1.47,0,0,1,0-.3V1.56A1.51,1.51,0,0,0,13.64.07h-.18a10.06,10.06,0,0,0-2.13,0h-.17A1.5,1.5,0,0,0,9.92,1.55V2a1,1,0,0,1-.72.94A10.06,10.06,0,0,0,8,3.42l0,0h0a1,1,0,0,1-1.09-.19s0,0,0,0L6.49,3a1.48,1.48,0,0,0-1.95-.15l-.14.12c-.26.22-.52.46-.76.7s-.48.5-.7.76c0,0,0,0,0,0l-.12.15A1.5,1.5,0,0,0,3,6.49l.31.31A1,1,0,0,1,3.44,8a9.13,9.13,0,0,0-.51,1.21s0,.1,0,.11a.83.83,0,0,1-.22.33,1.21,1.21,0,0,1-.75.29H1.55A1.53,1.53,0,0,0,.06,11.2l0,.19c0,.33,0,.7,0,1s0,.68,0,1l0,.22a1.5,1.5,0,0,0,1.49,1.24H2a1,1,0,0,1,.92.67c0,.08,0,.1,0,.14a10,10,0,0,0,.47,1.13.47.47,0,0,0,.09.12s-.07-.08,0,0A1,1,0,0,1,3.28,18l0,0L3,18.29,3,18.37a1.53,1.53,0,0,0-.14,1.93l.13.16c.22.25.46.51.7.75s.49.47.75.7l.2.16A1.46,1.46,0,0,0,6.38,22l.34-.34.09-.07a.89.89,0,0,1,1.13-.17H8A10.4,10.4,0,0,0,9.28,22a1.15,1.15,0,0,1,.35.22,1,1,0,0,1,.29.69v.43a1.51,1.51,0,0,0,1.26,1.49l.1,0c.37,0,.75.05,1.14.05s.76,0,1.14-.05l.1,0a1.51,1.51,0,0,0,1.26-1.49v-.44a1,1,0,0,1,.56-.88,1.31,1.31,0,0,1,.28-.09,9.05,9.05,0,0,0,1.06-.45.66.66,0,0,1,.19-.09,1,1,0,0,1,1,.18l.1.1.26.26,0,0A1.54,1.54,0,0,0,20.3,22l0,0,.09-.07q.41-.34.78-.72c.24-.25.49-.51.72-.78A1.27,1.27,0,0,1,22,20.3a1.51,1.51,0,0,0-.11-1.89.73.73,0,0,0-.08-.09L21.57,18a1,1,0,0,1-.2-1.07.69.69,0,0,1,.06-.13,11.24,11.24,0,0,0,.49-1.18l0-.13a1,1,0,0,1,.21-.32,1,1,0,0,1,.69-.29h.54a1.48,1.48,0,0,0,1.39-1.27.28.28,0,0,0,0-.13c0-.36.05-.72.05-1.08S24.83,11.65,24.79,11.27Z" style="fill:#0071bc"/><path d="M18.43,9.43a6.45,6.45,0,0,0-1.19-1.67,6.13,6.13,0,0,0-1.67-1.19,6.07,6.07,0,0,0-2.74-.65h0a6.46,6.46,0,0,0-2,.33,5.88,5.88,0,0,0-.73.3A6.32,6.32,0,0,0,6.9,10.11v0a6.28,6.28,0,0,0-.34,2,6,6,0,0,0,.34,2,5.1,5.1,0,0,0,.3.73,6.39,6.39,0,0,0,1.2,1.67,6.13,6.13,0,0,0,1.67,1.19,5.92,5.92,0,0,0,.73.31,6.28,6.28,0,0,0,2,.33,6,6,0,0,0,2-.35,5.7,5.7,0,0,0,.72-.29,6.24,6.24,0,0,0,2.86-2.88,6.23,6.23,0,0,0,.29-4.76A4.62,4.62,0,0,0,18.43,9.43Zm-.62,4.48a4,4,0,0,1-.25.6,5,5,0,0,1-1,1.41,5.09,5.09,0,0,1-1.41,1,5.39,5.39,0,0,1-.6.25,5.23,5.23,0,0,1-1.73.29,5.18,5.18,0,0,1-1.7-.28c-.21-.07-.42-.16-.62-.25a5.15,5.15,0,0,1-1.4-1,5.09,5.09,0,0,1-1-1.41,5.73,5.73,0,0,1-.25-.62,5.15,5.15,0,0,1-.29-1.7,5.28,5.28,0,0,1,.29-1.73,5.56,5.56,0,0,1,.25-.61,5.09,5.09,0,0,1,1-1.41,5.36,5.36,0,0,1,1.41-1,4.73,4.73,0,0,1,.62-.25,5.35,5.35,0,0,1,1.69-.28h0a5.2,5.2,0,0,1,1.71.29,4,4,0,0,1,.6.25,5.29,5.29,0,0,1,1.42,1,5,5,0,0,1,1,1.41,4,4,0,0,1,.26.6,5.27,5.27,0,0,1,0,3.42Z" style="fill:#fff;stroke:#ebebeb;stroke-miterlimit:10"/></g></g></g></svg>