<svg xmlns="http://www.w3.org/2000/svg" viewBox="0 0 396.1 411.59"><title>Asset 1</title><g id="Layer_2" data-name="Layer 2"><g id="Capa_1" data-name="Capa 1"><g id="icon" style="opacity:0.03"><path d="M318.78,209.05l-2.2,2.44c-1.18,1.43-2.87,3.51-5,6.1-4.75,5.87-9.3,11.41-13.7,16.73-4.14,25.38-11.24,45.24-21.41,59.42q-23.56,32.86-54,41.08A100.44,100.44,0,0,1,162.56,333q-29.48-10-41.26-24.64Q91.84,275.47,87.91,192.41T125.24,67.34q13.71-12.75,43.22-21a102.42,102.42,0,0,1,58.93.91c.78.24,1.53.58,2.3.84,8.69-8.88,17.17-16.89,25.56-24.09-1.91-.84-3.75-1.77-5.72-2.55Q201.67,4.06,142.18,12T45,63.54q-23.22,26.1-34.09,65.28A291.69,291.69,0,0,0,0,207.16a324,324,0,0,0,13.05,92.13q13.07,44.26,43.53,70.37,29,26.1,77.62,37a197.42,197.42,0,0,0,96.48-2.18q53.64-11.6,88.49-59.48,15.94-23.19,26.12-56.58t10.15-79.8a291.94,291.94,0,0,0-2.62-39.14C342.9,181.81,331.61,195,318.78,209.05Z" style="fill:#404040"/><path d="M201.18,157.14s-54-69.75-82.12-42.75S185.43,255,206.81,255c22.5,0,93.48-91,105.75-105.75,5.62-6.75,111.37-117,76.5-144C341.84-31.28,232.68,133.52,201.18,157.14Z" style="fill:#404040"/></g></g></g></svg>