<svg xmlns="http://www.w3.org/2000/svg" viewBox="0 0 15.77 14.33"><title>checked</title><g id="Layer_2" data-name="Layer 2"><g id="Capa_1" data-name="Capa 1"><g id="checkmark"><g id="_1040-checkmark-toolbar-selected_2x.png" data-name="1040-checkmark-toolbar-selected@2x.png"><path d="M14.36,0a1.31,1.31,0,0,0-1,.45L5.16,9.17,2.4,6.48h0a1.41,1.41,0,0,0-1-.4A1.39,1.39,0,0,0,0,7.46a1.26,1.26,0,0,0,.26.78h0l3.94,5.51a1.26,1.26,0,0,0,1.16.58,1.32,1.32,0,0,0,1.12-.54l9-11.58a1.19,1.19,0,0,0,.29-.83A1.4,1.4,0,0,0,14.36,0Z" style="fill:#fff"/></g></g></g></g></svg>