<svg xmlns="http://www.w3.org/2000/svg" viewBox="0 0 186.76 39.63"><title>logo</title><g id="Layer_2" data-name="Layer 2"><g id="Capa_1" data-name="Capa 1"><g id="logo"><path d="M0,24.21H7.77v4.73A4.22,4.22,0,0,0,8.9,32.09a5.05,5.05,0,0,0,3.49,1,4.5,4.5,0,0,0,3.49-1.24c.6-.74.9-2.36.9-4.84v-23A3.82,3.82,0,0,1,18,1.18,4.07,4.07,0,0,1,20.94,0h3.83V27.36a30.17,30.17,0,0,1-.34,5.41,8.79,8.79,0,0,1-1.46,3,10,10,0,0,1-4.17,2.92,21.32,21.32,0,0,1-6.3.9,16,16,0,0,1-5.86-.9,8.28,8.28,0,0,1-4.16-2.47A7.85,7.85,0,0,1,.56,33.1,23.42,23.42,0,0,1,0,27.25Z" style="fill:#217ec1"/><path d="M29.73,36.38a11.06,11.06,0,0,1-3.38-5.46,25,25,0,0,1-1-7.15,22.7,22.7,0,0,1,.85-6.08,12.5,12.5,0,0,1,2.64-5.07,11.76,11.76,0,0,1,7.55-4,17.39,17.39,0,0,1,8.33.74A11.45,11.45,0,0,1,51,15.21a18.77,18.77,0,0,1,1.91,8.67,21.22,21.22,0,0,1-.79,6.19,15.67,15.67,0,0,1-2,4.39,11.29,11.29,0,0,1-6.87,4.62,15.32,15.32,0,0,1-7.49.17A13,13,0,0,1,29.73,36.38Zm5.4-19.82q-2.37,2.6-2.14,7.71c.15,3.42.79,5.8,1.91,7.16a5.08,5.08,0,0,0,2.37,1.51,5.3,5.3,0,0,0,3.43.12,5.72,5.72,0,0,0,3.1-2.54c.9-1.35,1.39-3.52,1.46-6.53A11.48,11.48,0,0,0,44,17.91a5.89,5.89,0,0,0-3-2.59,5.5,5.5,0,0,0-3.38-.05A5.79,5.79,0,0,0,35.13,16.56Z" style="fill:#217ec1"/><path d="M158.61,39.63h-3.94a3.67,3.67,0,0,1-3.83-3.82V20.49a4.63,4.63,0,0,0-1.63-3.94,6,6,0,0,0-3.66-1.24,5.7,5.7,0,0,0-3.6,1.24,4.72,4.72,0,0,0-1.58,3.94V39.63h-7.88V22.07q0-7.65,4-10.25A17.5,17.5,0,0,1,145.33,9a16.93,16.93,0,0,1,9.12,2.59q4.16,2.6,4.16,10.47Z" style="fill:#31364a"/><path d="M180.68,29.84h5.63a12.24,12.24,0,0,1-4.73,7.2,14.29,14.29,0,0,1-8.78,2.59q-6.42,0-10-4.16t-3.6-11.6q0-7.2,3.49-11.26t10-4.17q6.75,0,10.47,4.06t3.6,11.6v1.23a2,2,0,0,1-.11.79H167.17a7.72,7.72,0,0,0,1.69,5.18,5.32,5.32,0,0,0,4.39,1.8,6.46,6.46,0,0,0,3.27-.78,1.69,1.69,0,0,0,.62-.4l.61-.62a2.6,2.6,0,0,1,.85-.9A3.39,3.39,0,0,1,180.68,29.84Zm-13.51-8.78h11.49a7.38,7.38,0,0,0-1.58-4.51A5.42,5.42,0,0,0,172.91,15a5.48,5.48,0,0,0-4,1.57A6.45,6.45,0,0,0,167.17,21.06Z" style="fill:#31364a"/><path d="M128.41,23.91l-.17.19c-.1.11-.23.28-.39.48l-1.06,1.3a11,11,0,0,1-1.66,4.61,7.74,7.74,0,0,1-4.2,3.19,7.85,7.85,0,0,1-4.65-.15,6.81,6.81,0,0,1-3.2-1.91c-1.52-1.7-2.39-4.7-2.59-9s.76-7.53,2.9-9.7a8,8,0,0,1,3.35-1.63,7.91,7.91,0,0,1,4.57.07l.18.06c.68-.69,1.33-1.31,2-1.87L123,9.36a17.39,17.39,0,0,0-8.33-.74,11.72,11.72,0,0,0-7.54,4,12.39,12.39,0,0,0-2.65,5.07,22.68,22.68,0,0,0-.84,6.08,25,25,0,0,0,1,7.15,11.06,11.06,0,0,0,3.38,5.46,13.08,13.08,0,0,0,6,2.87,15.32,15.32,0,0,0,7.49-.17,11.26,11.26,0,0,0,6.87-4.62,15.67,15.67,0,0,0,2-4.39,21.22,21.22,0,0,0,.79-6.19,22.94,22.94,0,0,0-.2-3C130.28,21.8,129.4,22.82,128.41,23.91Z" style="fill:#31364a"/><path d="M119.28,19.89s-4.19-5.42-6.37-3.32,5.15,10.91,6.81,10.91,7.25-7.06,8.2-8.2c.44-.53,8.65-9.09,5.94-11.18C130.2,5.26,121.72,18.05,119.28,19.89Z" style="fill:#217ec1"/><path d="M78.44,12.11c-.2.23-.41.47-.6.73a17,17,0,0,0-3.28,9.23,17.21,17.21,0,0,1,.09,1.8q0,4.5-1.69,6.87a5.57,5.57,0,0,1-4.84,2.36,5.47,5.47,0,0,1-4.73-2.36q-1.57-2.14-1.57-6.87a10.91,10.91,0,0,1,1.68-6.42,5.7,5.7,0,0,1,4.85-2.25A5.35,5.35,0,0,1,73,17.57a6.45,6.45,0,0,1,.49.75,17.21,17.21,0,0,1,3-6.52c.24-.31.49-.6.74-.88a10.23,10.23,0,0,0-6.87-2.48,10.06,10.06,0,0,0-5,1.13,9.45,9.45,0,0,0-3.6,3.49v-9a3.69,3.69,0,0,0-1.13-2.7A3.69,3.69,0,0,0,58,.22H54.16V26q0,8,4.62,10.81a18.82,18.82,0,0,0,10,2.81,18.09,18.09,0,0,0,5.68-1A9.39,9.39,0,0,0,79,35.58c2.26-2.93,2.82-6.72,2.82-11.37S81.3,15.76,79,12.84A8.63,8.63,0,0,0,78.44,12.11Z" style="fill:#217ec1"/><path d="M98.89.22a3.69,3.69,0,0,0-2.7,1.13,3.68,3.68,0,0,0-1.12,2.7v9a9.55,9.55,0,0,0-3.61-3.49,10.06,10.06,0,0,0-4.95-1.13,10.47,10.47,0,0,0-8.67,4.4q-3.37,4.38-3.38,11.37t3.38,11.37c.19.24.39.46.6.68.21-.22.41-.44.6-.68a14.87,14.87,0,0,0,2.19-4,17.74,17.74,0,0,0,1-6.58c0-.34,0-.71,0-1.11a10.28,10.28,0,0,1,1.69-6.3,5.35,5.35,0,0,1,4.61-2.37,5.7,5.7,0,0,1,4.85,2.25,10.91,10.91,0,0,1,1.69,6.42q0,4.72-1.58,6.87a5.47,5.47,0,0,1-4.73,2.36,5.57,5.57,0,0,1-4.84-2.36,6.26,6.26,0,0,1-.46-.75,17.51,17.51,0,0,1-3.09,6.64c-.2.25-.42.49-.64.73a10.4,10.4,0,0,0,2.67,1.32,18.09,18.09,0,0,0,5.68,1,18.88,18.88,0,0,0,10-2.81Q102.72,34,102.72,26V.22Z" style="fill:#31364a"/></g></g></g></svg>