<svg xmlns="http://www.w3.org/2000/svg" viewBox="0 0 32 39.8"><title>Asset 7</title><g id="Layer_2" data-name="Layer 2"><g id="Capa_1" data-name="Capa 1"><path d="M10.83,19.42a7.41,7.41,0,0,1-2.51-4.68.48.48,0,0,1-.26.09c-.34,0-.8-.51-1.3-2.43-.63-2.4,0-2.87.53-2.87a.72.72,0,0,1,.26,0V9.51S5.87,3.89,9.92,1.42A1.85,1.85,0,0,1,9.27,0h0s1.85.21,3.63.22A11.11,11.11,0,0,0,15.1.06,2.92,2.92,0,0,1,15.82,0a3.91,3.91,0,0,1,3.55,2.6h.07c.53,0,3.85.25,2.26,6.93v0a1,1,0,0,1,.24,0c.57,0,1.16.46.54,2.88-.51,1.92-1,2.42-1.32,2.42a.47.47,0,0,1-.3-.14,7.43,7.43,0,0,1-2.45,4.67A6.22,6.22,0,0,1,10.83,19.42Zm15.61,4.31a22.82,22.82,0,0,1-6.64-3l-2.75,8.72-.38,1.18-1.24-3.5c3.1-4.32-.82-4.15-.82-4.15s-3.92-.17-.82,4.15l-1.22,3.48-.38-1.18v0l-.44-1.38h0L9.42,20.71a22.82,22.82,0,0,1-6.64,3C.05,24.43-.08,27.58,0,29.14a11.54,11.54,0,0,0,.31,3s5.34,3.46,14.27,3.46l0-.2v.2a33.28,33.28,0,0,0,4.28-.27,7.39,7.39,0,0,1,7.26-8.82,7.24,7.24,0,0,1,3,.63A3.77,3.77,0,0,0,26.44,23.73ZM32,34a5.84,5.84,0,1,1-5.84-5.84A5.84,5.84,0,0,1,32,34Zm-2.22-.84H27V30.34h-1.7v2.77H22.54V34.8h2.77v2.77H27V34.8h2.77Z" style="fill:#0071bc"/></g></g></svg>