<svg xmlns="http://www.w3.org/2000/svg" viewBox="0 0 26.64 29.38"><title>Asset 6</title><g id="Layer_2" data-name="Layer 2"><g id="Capa_1" data-name="Capa 1"><polygon points="24.74 29.38 18.86 29.38 5.74 10.54 11.61 10.54 24.74 29.38" style="fill:#0071bc"/><polygon points="2.74 29.38 8.61 29.38 21.74 10.54 15.87 10.54 2.74 29.38" style="fill:#0071bc"/><polygon points="18.74 23.75 16.09 22.51 14.62 25.04 12.6 22.92 10.31 24.75 9.19 22.05 6.4 22.92 6.33 20 3.41 19.81 4.4 17.06 1.75 15.83 3.67 13.62 1.64 11.51 4.23 10.15 3.1 7.45 6 7.11 5.92 4.19 8.75 4.92 9.74 2.17 12.11 3.87 14.02 1.66 15.62 4.11 18.2 2.73 18.81 5.59 21.71 5.25 21.24 8.13 24.07 8.86 22.59 11.38 24.98 13.08 22.68 14.89 24.29 17.34 21.5 18.2 22.11 21.06 19.2 20.86 18.74 23.75" style="fill:#0071bc;stroke:#fff;stroke-miterlimit:10;stroke-width:2px"/></g></g></svg>